<?xml version="1.0" encoding="UTF-8" standalone="no"?><svg xmlns="http://www.w3.org/2000/svg" xmlns:xlink="http://www.w3.org/1999/xlink" fill="#191919" height="392.5" preserveAspectRatio="xMidYMid meet" version="1" viewBox="0.0 0.0 392.5 392.5" width="392.5" zoomAndPan="magnify"><g id="change1_1"><path d="M196.225,196.225H0C0,87.853,87.853,0,196.225,0V196.225z M196.225,196.225v196.225 c108.372,0,196.225-87.853,196.225-196.225H196.225z M59.078,241.815c-24.828,24.828-24.828,65.082,0,89.91 c24.828,24.828,65.082,24.828,89.91,0c24.828-24.828,24.828-65.082,0-89.91C124.159,216.987,83.906,216.987,59.078,241.815z M334.891,143.068c24.828-24.828,24.828-65.082,0-89.91c-24.828-24.828-65.082-24.828-89.91,0s-24.828,65.082,0,89.91 C269.809,167.895,310.063,167.895,334.891,143.068z" fill="inherit"/></g></svg>